<svg id="svg" version="1.1" width="515" height="515" xmlns="http://www.w3.org/2000/svg" xmlns:xlink="http://www.w3.org/1999/xlink" style="display: block;"><g id="svgg"><path id="path0" d="M255.109 7.581 C 252.144 8.379,247.731 9.910,245.303 10.984 C 242.823 12.081,236.482 13.390,230.838 13.969 C 216.042 15.487,205.569 18.624,191.510 25.749 C 187.426 27.818,185.239 28.248,179.508 28.111 C 162.973 27.714,148.298 35.308,138.923 49.113 C 136.081 53.298,133.556 55.700,130.211 57.399 C 119.559 62.810,112.832 71.008,108.668 83.655 C 107.117 88.365,103.175 95.335,96.030 106.000 C 77.805 133.206,76.814 142.187,88.201 177.000 L 92.290 189.500 93.030 211.000 C 93.437 222.825,94.556 239.475,95.517 248.000 L 97.263 263.500 91.355 269.633 C 63.950 298.075,78.027 343.232,116.509 350.326 L 123.500 351.614 124.246 359.040 C 126.835 384.806,137.594 394.593,177.465 407.447 L 196.429 413.561 189.430 418.214 C 176.643 426.715,166.153 439.632,155.942 459.449 C 148.784 473.342,148.398 478.512,154.069 484.567 C 155.986 486.614,155.981 486.705,153.553 493.845 C 152.204 497.810,150.206 504.215,149.113 508.078 L 147.126 515.100 152.260 514.800 L 157.395 514.500 160.529 504.000 C 162.701 496.725,164.099 493.557,165.082 493.686 C 166.475 493.869,184.229 499.994,184.783 500.483 C 184.938 500.620,184.682 503.942,184.214 507.866 L 183.362 515.000 190.552 515.000 L 197.742 515.000 198.433 505.750 C 198.814 500.663,201.322 485.250,204.008 471.500 C 206.693 457.750,209.191 444.363,209.559 441.750 C 210.423 435.610,210.934 435.734,216.783 443.503 C 237.382 470.862,268.642 472.566,294.605 447.745 C 304.671 438.122,305.945 437.759,305.989 444.500 C 306.000 446.150,307.099 456.050,308.432 466.500 C 309.765 476.950,311.407 492.137,312.081 500.250 L 313.306 515.000 320.291 515.000 L 327.276 515.000 326.625 508.645 L 325.974 502.290 334.058 501.616 C 338.504 501.245,343.907 500.333,346.064 499.590 L 349.987 498.238 350.940 501.869 C 351.465 503.866,352.421 507.637,353.066 510.250 L 354.237 515.000 359.119 515.000 C 361.803 515.000,364.000 514.725,364.000 514.388 C 364.000 514.052,362.790 509.106,361.310 503.398 L 358.621 493.020 360.995 488.795 C 370.310 472.221,344.961 424.683,322.152 415.951 L 317.500 414.171 320.350 413.072 C 321.917 412.468,330.994 409.307,340.521 406.049 C 378.719 392.983,388.483 384.238,391.296 360.573 L 392.394 351.339 398.713 350.256 C 437.567 343.601,452.006 294.769,422.867 268.570 L 417.945 264.145 419.524 249.323 C 420.439 240.727,421.122 225.257,421.149 212.500 C 421.196 190.879,421.245 190.371,424.010 183.000 C 428.294 171.580,429.757 162.496,431.111 138.916 C 433.129 103.773,429.140 91.541,412.045 80.447 C 405.812 76.402,405.415 75.906,403.717 70.030 C 400.351 58.386,388.846 50.834,376.890 52.420 C 372.087 53.057,372.042 53.037,370.578 49.531 C 367.349 41.805,359.383 35.000,353.566 35.000 C 352.575 35.000,350.152 33.585,348.183 31.856 C 341.846 26.292,336.746 24.663,327.621 25.288 L 319.619 25.837 307.091 18.393 C 287.096 6.512,271.300 3.227,255.109 7.581 M161.303 146.607 C 165.261 147.492,171.788 149.760,175.807 151.648 L 183.114 155.081 190.409 152.563 C 207.320 146.727,291.231 145.061,314.000 150.110 C 316.475 150.659,321.366 152.971,324.869 155.249 C 332.964 160.512,335.669 160.495,343.524 155.128 C 369.145 137.624,393.547 149.569,399.997 182.772 C 402.066 193.422,403.900 196.830,408.002 197.650 C 412.264 198.503,412.824 221.585,409.351 253.250 L 408.720 259.000 402.810 259.000 C 392.823 259.000,391.483 260.273,390.097 271.084 C 389.450 276.130,388.075 284.588,387.042 289.879 C 385.888 295.792,384.547 310.676,383.563 328.500 C 380.637 381.487,379.956 382.515,338.500 396.503 C 329.150 399.657,314.890 404.645,306.811 407.587 C 267.578 421.870,251.139 422.376,216.529 410.364 C 211.013 408.449,195.925 403.379,183.000 399.095 C 135.644 383.402,135.249 382.867,132.020 330.000 C 130.820 310.362,129.440 295.323,128.532 292.000 C 127.290 287.458,124.000 267.169,124.000 264.055 C 124.000 262.407,115.375 259.000,111.203 259.000 C 106.372 259.000,106.589 259.489,104.996 245.000 C 102.896 225.902,102.489 200.000,104.289 200.000 C 108.444 200.000,111.002 195.735,113.895 183.981 C 118.471 165.388,125.473 150.512,131.329 146.941 C 135.419 144.447,150.860 144.275,161.303 146.607 M161.144 239.802 C 159.423 240.736,156.292 243.801,154.185 246.614 C 145.774 257.845,146.318 261.778,156.040 260.025 C 162.707 258.822,196.719 255.354,210.715 254.450 C 227.611 253.357,226.975 250.972,208.500 246.142 C 190.737 241.498,184.268 240.155,176.500 239.499 C 172.650 239.174,168.324 238.727,166.887 238.506 C 165.450 238.285,162.865 238.869,161.144 239.802 M334.866 239.201 C 325.174 239.985,289.702 248.195,287.238 250.226 C 284.480 252.497,288.044 253.811,298.795 254.487 C 313.507 255.412,346.365 258.740,352.740 259.950 C 362.073 261.721,363.035 259.769,357.430 250.441 C 350.513 238.932,348.792 238.075,334.866 239.201 M183.500 267.342 C 177.021 269.026,173.017 271.135,164.750 277.221 C 156.318 283.428,156.344 283.099,163.850 288.466 C 168.962 292.120,172.404 289.314,168.331 284.813 C 166.767 283.085,166.782 282.873,168.581 281.467 C 173.382 277.712,174.000 277.697,174.000 281.330 C 174.000 287.916,180.410 293.003,188.700 292.996 C 197.337 292.990,203.850 286.624,202.669 279.345 C 202.018 275.336,202.864 275.173,206.863 278.538 C 208.830 280.193,209.987 282.190,210.189 284.280 C 210.525 287.742,213.549 289.319,215.115 286.848 C 217.303 283.396,216.039 279.670,211.048 274.859 C 207.281 271.229,206.698 270.315,208.613 271.043 C 211.781 272.247,214.000 272.268,214.000 271.094 C 214.000 267.686,192.400 265.029,183.500 267.342 M311.500 266.680 C 306.289 267.848,300.000 270.254,300.000 271.080 C 300.000 272.267,302.207 272.252,305.387 271.043 C 307.302 270.315,306.719 271.229,302.952 274.859 C 297.682 279.939,296.400 284.427,299.487 286.989 C 301.758 288.874,304.000 287.449,304.000 284.120 C 304.000 282.062,304.925 280.400,307.077 278.589 C 311.137 275.172,311.984 275.323,311.331 279.345 C 310.150 286.624,316.663 292.990,325.300 292.996 C 333.590 293.003,340.000 287.916,340.000 281.330 C 340.000 277.697,340.618 277.712,345.419 281.467 C 347.218 282.873,347.233 283.085,345.669 284.813 C 341.596 289.314,345.038 292.120,350.150 288.466 C 357.656 283.100,357.682 283.429,349.250 277.217 C 336.174 267.584,323.390 264.016,311.500 266.680 M115.413 273.725 C 115.792 277.424,117.168 285.637,118.470 291.975 C 119.773 298.314,121.111 309.125,121.444 316.000 C 121.778 322.875,122.324 331.378,122.657 334.895 L 123.264 341.290 118.776 340.784 C 83.654 336.825,75.377 285.960,107.262 270.027 C 115.065 266.128,114.613 265.923,115.413 273.725 M407.641 269.700 C 439.979 285.535,432.308 336.505,396.956 340.692 L 392.082 341.269 392.528 337.884 C 392.773 336.023,393.466 326.400,394.067 316.500 C 394.669 306.600,396.010 294.360,397.047 289.300 C 398.085 284.241,399.236 277.153,399.605 273.550 C 400.373 266.053,400.282 266.097,407.641 269.700 M236.095 319.574 C 227.524 326.786,230.650 336.687,242.178 338.841 C 244.675 339.307,247.782 340.434,249.082 341.345 C 251.979 343.374,260.047 343.532,263.800 341.634 C 265.285 340.882,268.300 339.941,270.500 339.542 C 282.595 337.349,286.928 325.357,277.939 318.957 C 272.543 315.114,269.476 319.445,274.500 323.813 C 279.523 328.180,275.967 334.000,268.277 334.000 C 266.707 334.000,263.678 334.890,261.545 335.977 C 257.552 338.013,254.334 337.885,250.500 335.538 C 249.400 334.864,246.497 333.998,244.050 333.613 C 236.156 332.370,234.984 329.366,240.113 323.524 C 242.673 320.608,243.007 319.713,241.991 318.489 C 240.312 316.467,239.640 316.590,236.095 319.574 M219.529 363.355 C 217.134 365.107,218.172 368.397,220.852 367.547 C 221.960 367.195,225.098 368.219,228.607 370.076 C 233.949 372.905,235.014 373.127,240.000 372.457 C 247.112 371.502,264.906 371.527,272.183 372.504 C 277.440 373.209,278.293 373.026,283.537 370.066 C 286.656 368.306,289.893 367.129,290.731 367.450 C 292.665 368.193,295.043 366.275,294.368 364.517 C 293.348 361.858,289.123 361.885,283.236 364.587 C 278.214 366.891,276.754 367.130,271.500 366.505 C 263.846 365.594,248.248 365.587,240.500 366.491 C 235.265 367.101,233.798 366.861,229.000 364.605 C 222.636 361.614,222.022 361.532,219.529 363.355 M230.945 424.989 C 249.328 429.970,265.216 429.972,284.518 424.995 C 300.749 420.810,301.554 421.585,291.422 431.637 C 266.529 456.333,245.764 456.234,224.505 431.319 C 215.394 420.641,215.287 420.747,230.945 424.989 M222.906 478.464 C 206.931 484.346,205.876 494.000,221.209 494.000 C 235.669 494.000,248.438 483.922,240.777 478.557 C 238.031 476.633,228.021 476.581,222.906 478.464 M273.223 478.557 C 265.632 483.874,278.789 494.000,293.288 494.000 C 303.926 494.000,307.029 489.593,300.637 483.564 C 294.480 477.758,278.524 474.843,273.223 478.557 M253.090 490.897 C 251.394 492.002,253.223 497.488,255.592 498.397 C 256.567 498.771,257.000 500.631,257.000 504.450 C 257.000 511.213,256.302 511.523,241.251 511.451 C 235.121 511.422,231.366 511.766,231.909 512.309 C 233.417 513.817,245.113 514.286,251.500 513.094 C 255.967 512.261,259.427 512.269,265.042 513.128 C 272.607 514.286,284.000 513.621,284.000 512.023 C 284.000 511.564,280.512 511.398,276.250 511.654 C 271.988 511.909,266.475 511.743,264.000 511.286 L 259.500 510.453 259.199 505.255 C 258.963 501.188,259.365 499.426,261.046 497.152 C 264.907 491.929,258.834 487.154,253.090 490.897 " stroke="none" fill="#000000" fill-rule="evenodd"></path></g></svg>