<svg id="svg" version="1.1" width="415" height="415" xmlns="http://www.w3.org/2000/svg" xmlns:xlink="http://www.w3.org/1999/xlink" style="display: block;"><g id="svgg"><path id="path0" d="M209.299 5.052 C 206.438 5.557,201.263 7.062,197.799 8.398 C 194.199 9.786,188.287 11.066,184.000 11.385 C 176.170 11.969,162.810 15.968,155.000 20.065 C 151.568 21.866,148.720 22.465,143.000 22.590 C 130.046 22.874,119.224 28.702,111.897 39.341 C 110.063 42.004,106.921 45.020,104.915 46.044 C 96.480 50.346,90.479 57.673,87.050 67.852 C 85.841 71.442,81.789 78.675,77.398 85.084 C 63.461 105.426,61.968 115.295,69.391 138.000 C 72.703 148.132,73.259 151.285,74.060 164.500 C 74.560 172.750,75.666 186.865,76.519 195.867 L 78.069 212.234 72.980 217.614 C 51.867 239.938,62.897 275.988,92.713 282.109 C 99.545 283.512,99.152 282.938,100.518 293.500 C 102.806 311.183,113.254 319.270,147.706 330.025 L 157.912 333.211 152.002 337.158 C 133.504 349.510,116.273 380.720,123.135 389.444 C 125.487 392.434,125.718 390.823,120.579 407.250 L 118.155 415.000 122.397 415.000 L 126.638 415.000 129.413 405.929 C 131.723 398.378,132.465 396.978,133.844 397.576 C 134.755 397.970,138.525 399.408,142.222 400.770 L 148.944 403.246 148.329 409.123 L 147.715 415.000 153.358 415.000 C 156.461 415.000,159.000 414.651,159.000 414.224 C 159.000 410.913,161.604 393.970,163.952 382.000 C 165.517 374.025,167.369 364.350,168.069 360.500 C 169.729 351.363,170.214 350.997,173.782 356.183 C 190.112 379.918,215.894 381.344,238.608 359.767 C 242.674 355.906,246.000 352.985,246.000 353.278 C 246.000 354.240,249.076 380.361,249.971 387.000 C 250.453 390.575,251.160 398.337,251.543 404.250 L 252.239 415.000 257.973 415.000 L 263.706 415.000 263.233 410.068 L 262.759 405.136 266.629 404.565 C 268.758 404.251,272.957 403.550,275.959 403.006 C 282.363 401.847,282.323 401.815,283.913 409.250 L 285.143 415.000 289.442 415.000 L 293.741 415.000 291.404 406.250 L 289.067 397.500 291.165 393.164 C 297.630 379.796,278.719 343.514,261.259 335.791 L 256.667 333.759 259.584 332.540 C 261.188 331.869,267.675 329.637,274.000 327.579 C 305.239 317.415,316.000 306.910,316.000 286.580 C 316.000 283.360,316.150 283.238,320.876 282.611 C 351.162 278.593,363.860 241.244,342.707 218.397 L 337.191 212.440 338.557 196.470 C 339.308 187.686,339.940 174.266,339.961 166.648 C 339.996 154.081,340.269 151.992,342.896 144.148 C 348.041 128.787,349.689 94.186,345.834 82.445 C 343.373 74.946,337.056 67.089,331.008 64.004 C 327.971 62.455,327.048 61.242,325.968 57.387 C 323.314 47.906,314.891 41.675,305.329 42.118 L 299.846 42.372 298.065 38.394 C 296.006 33.795,291.029 29.247,287.173 28.440 C 284.221 27.822,284.131 27.774,277.968 23.500 C 274.060 20.789,272.861 20.494,265.537 20.435 C 257.537 20.371,257.307 20.297,247.888 14.754 C 232.804 5.877,221.183 2.955,209.299 5.052 M128.844 118.086 C 132.333 118.639,138.001 120.420,141.439 122.045 L 147.691 124.999 153.595 122.962 C 175.348 115.457,249.931 117.040,261.879 125.261 C 267.634 129.220,270.577 129.133,277.145 124.806 C 297.765 111.225,316.767 120.365,322.075 146.418 C 323.949 155.611,326.689 160.000,330.556 160.000 C 332.687 160.000,331.948 189.899,329.438 205.250 L 328.824 209.000 323.603 209.000 C 316.224 209.000,315.393 209.997,314.012 220.500 C 313.362 225.450,312.410 231.153,311.897 233.174 C 310.865 237.237,309.367 255.260,308.089 279.000 C 306.591 306.794,305.006 308.340,262.951 323.002 C 212.671 340.531,205.321 341.253,177.000 331.446 C 171.225 329.446,157.896 324.994,147.381 321.553 C 119.964 312.581,112.713 307.784,109.513 296.500 C 108.077 291.435,107.839 288.914,105.928 258.500 C 105.340 249.150,104.264 238.800,103.536 235.500 C 102.808 232.200,101.662 225.517,100.989 220.650 C 99.632 210.837,97.846 209.000,89.665 209.000 L 86.267 209.000 85.088 200.250 C 84.439 195.438,83.639 184.703,83.309 176.395 L 82.709 161.290 85.326 160.633 C 88.648 159.799,89.183 158.706,92.363 146.247 C 99.453 118.477,104.878 114.289,128.844 118.086 M127.471 195.160 C 123.055 199.037,118.368 207.768,119.888 209.288 C 120.614 210.014,123.458 209.969,129.216 209.142 C 143.890 207.034,164.317 205.020,171.128 205.010 C 178.867 204.998,182.329 202.836,177.531 201.012 C 168.434 197.553,140.859 192.066,132.285 192.008 C 131.616 192.004,129.450 193.422,127.471 195.160 M266.080 193.187 C 261.999 193.697,252.841 195.620,245.729 197.459 C 226.324 202.477,225.996 204.303,244.317 205.325 C 254.227 205.878,271.357 207.670,285.230 209.606 C 289.099 210.146,290.076 209.966,290.593 208.618 C 291.474 206.323,285.211 196.162,281.500 193.865 C 278.239 191.846,277.168 191.799,266.080 193.187 M149.000 215.361 C 142.724 216.768,140.495 217.845,133.500 222.854 C 126.701 227.722,126.553 228.104,130.262 231.223 C 135.232 235.403,140.136 233.546,135.750 229.146 C 134.749 228.142,134.999 227.514,137.000 225.997 L 139.500 224.102 140.078 226.801 C 141.435 233.139,145.887 236.441,152.727 236.184 C 159.280 235.938,164.761 229.879,163.386 224.401 C 162.793 222.038,162.919 221.886,164.697 222.838 C 167.538 224.359,169.258 226.711,169.387 229.255 C 169.520 231.874,172.727 232.874,173.611 230.572 C 174.611 227.965,173.062 223.860,169.996 220.997 C 167.125 218.314,167.122 218.301,169.554 218.766 C 173.051 219.434,172.574 218.133,168.750 216.570 C 163.752 214.527,155.085 213.997,149.000 215.361 M255.500 214.500 C 254.950 214.689,252.423 215.122,249.885 215.462 C 247.347 215.803,244.422 216.768,243.385 217.607 C 241.599 219.051,241.644 219.109,244.239 218.706 L 246.978 218.281 243.429 222.210 C 239.256 226.829,238.942 231.279,242.750 231.820 C 244.654 232.090,245.000 231.678,245.000 229.142 C 245.000 227.065,245.844 225.479,247.750 223.976 L 250.500 221.806 251.039 226.341 C 252.589 239.380,272.834 239.650,274.200 226.650 L 274.500 223.799 277.352 226.053 C 279.799 227.986,279.977 228.434,278.602 229.203 C 276.474 230.394,276.514 234.000,278.656 234.000 C 280.634 234.000,287.235 229.157,286.803 228.023 C 284.652 222.381,261.586 212.417,255.500 214.500 M93.000 219.652 C 93.000 221.596,93.886 227.532,94.968 232.843 C 96.671 241.201,98.990 263.880,98.998 272.250 C 99.001 275.653,97.204 275.797,89.708 272.992 C 64.994 263.745,63.251 228.958,86.916 217.268 C 92.174 214.671,93.000 214.994,93.000 219.652 M333.667 220.560 C 350.948 233.740,348.364 261.687,328.956 271.522 C 323.862 274.104,315.986 275.842,316.021 274.378 C 316.202 266.641,319.325 235.742,320.455 230.500 C 321.286 226.650,321.973 221.887,321.983 219.917 C 322.010 214.250,325.658 214.451,333.667 220.560 M189.725 257.752 C 184.233 263.820,187.079 273.000,194.453 273.000 C 195.558 273.000,198.805 273.972,201.670 275.159 C 206.635 277.217,207.081 277.243,211.190 275.713 C 213.560 274.831,217.190 273.809,219.256 273.442 C 229.659 271.595,230.699 256.000,220.418 256.000 C 218.367 256.000,218.677 258.398,221.000 260.500 C 225.193 264.295,222.632 268.960,216.316 269.032 C 214.767 269.049,212.626 269.724,211.559 270.532 C 209.116 272.379,205.580 272.406,202.154 270.603 C 200.694 269.835,197.705 268.822,195.511 268.353 C 190.504 267.282,189.838 264.822,193.517 260.982 C 195.003 259.431,195.918 257.676,195.550 257.081 C 194.535 255.439,191.502 255.788,189.725 257.752 M200.000 286.875 C 200.000 288.181,205.896 289.110,209.681 288.400 C 215.212 287.362,213.406 286.000,206.500 286.000 C 202.925 286.000,200.000 286.394,200.000 286.875 M169.667 290.667 C 166.544 293.790,170.392 298.247,178.000 300.318 C 184.921 302.201,229.939 302.040,236.803 300.106 C 243.663 298.174,246.899 293.821,243.544 291.036 C 241.880 289.656,240.000 290.445,240.000 292.524 C 240.000 296.049,236.197 296.500,206.500 296.500 C 175.908 296.500,173.000 296.106,173.000 291.965 C 173.000 290.066,171.033 289.300,169.667 290.667 M197.694 309.639 C 196.041 311.293,198.847 312.000,207.059 312.000 C 214.340 312.000,216.000 311.721,216.000 310.500 C 216.000 308.949,199.175 308.158,197.694 309.639 M185.500 342.394 C 200.786 346.560,212.403 346.554,229.418 342.373 C 242.162 339.241,242.754 340.082,233.787 348.587 C 212.750 368.543,196.160 367.206,178.039 344.094 C 174.105 339.076,173.679 339.173,185.500 342.394 M178.639 385.992 C 170.757 389.071,167.787 393.387,171.200 396.800 C 172.906 398.506,183.379 398.286,187.768 396.452 C 203.173 390.016,194.316 379.869,178.639 385.992 M219.897 385.883 C 217.831 387.555,217.707 388.062,218.785 390.428 C 222.179 397.877,245.000 401.119,245.000 394.152 C 245.000 387.205,225.995 380.944,219.897 385.883 M203.441 396.095 C 203.069 396.697,203.717 398.479,204.882 400.055 C 211.058 408.407,207.317 412.539,193.702 412.401 C 189.413 412.358,186.442 412.655,187.100 413.062 C 188.959 414.211,227.887 413.991,228.607 412.828 C 229.006 412.181,227.332 412.048,223.862 412.452 C 220.913 412.795,216.475 412.710,214.000 412.265 L 209.500 411.454 209.191 406.621 C 208.970 403.164,209.360 401.259,210.562 399.931 C 213.031 397.203,211.704 395.000,207.590 395.000 C 205.681 395.000,203.813 395.493,203.441 396.095 " stroke="none" fill="#000000" fill-rule="evenodd"></path></g></svg>